<svg width="13" height="12" viewBox="0 0 13 12" fill="none" xmlns="http://www.w3.org/2000/svg">
<path d="M11.2168 2.42418V4.67418C11.2168 4.77363 11.1773 4.86901 11.107 4.93934C11.0367 5.00966 10.9413 5.04917 10.8418 5.04918H8.59183C8.51766 5.04917 8.44516 5.02717 8.3835 4.98597C8.32183 4.94476 8.27377 4.88619 8.24539 4.81767C8.217 4.74915 8.20957 4.67375 8.22404 4.60101C8.2385 4.52827 8.27421 4.46145 8.32665 4.409L9.18646 3.54918L8.98564 3.34836C8.28185 2.64611 7.32822 2.25172 6.334 2.25172C5.33978 2.25172 4.38615 2.64611 3.68236 3.34836C3.64753 3.38318 3.60619 3.41081 3.56069 3.42965C3.51519 3.4485 3.46642 3.4582 3.41718 3.4582C3.36793 3.4582 3.31916 3.4485 3.27366 3.42965C3.22816 3.41081 3.18682 3.38318 3.15199 3.34836C3.08166 3.27803 3.04215 3.18264 3.04215 3.08318C3.04215 3.03393 3.05185 2.98516 3.0707 2.93966C3.08954 2.89416 3.11717 2.85282 3.15199 2.81799C3.99659 1.97534 5.14094 1.50211 6.334 1.50211C7.52706 1.50211 8.67141 1.97534 9.51601 2.81799L9.71683 3.01881L10.5766 2.159C10.6291 2.10656 10.6959 2.07085 10.7687 2.05639C10.8414 2.04192 10.9168 2.04935 10.9853 2.07774C11.0538 2.10612 11.1124 2.15418 11.1536 2.21585C11.1948 2.27751 11.2168 2.35001 11.2168 2.42418ZM8.98564 8.65164C8.28185 9.35389 7.32822 9.74828 6.334 9.74828C5.33978 9.74828 4.38615 9.35389 3.68236 8.65164L3.48154 8.45082L4.34135 7.591C4.39379 7.53855 4.4295 7.47173 4.44396 7.39899C4.45843 7.32625 4.451 7.25085 4.42261 7.18233C4.39423 7.11381 4.34617 7.05524 4.2845 7.01403C4.22284 6.97283 4.15034 6.95083 4.07617 6.95082H1.82617C1.72672 6.95083 1.63134 6.99034 1.56101 7.06066C1.49069 7.13099 1.45118 7.22637 1.45117 7.32582V9.57582C1.45118 9.64999 1.47317 9.72249 1.51438 9.78416C1.55559 9.84582 1.61415 9.89389 1.68268 9.92227C1.7512 9.95066 1.8266 9.95808 1.89934 9.94362C1.97208 9.92915 2.0389 9.89344 2.09135 9.841L2.95117 8.98119L3.15199 9.18201C3.99659 10.0247 5.14094 10.4979 6.334 10.4979C7.52706 10.4979 8.67141 10.0247 9.51601 9.18201C9.55083 9.14718 9.57845 9.10584 9.5973 9.06034C9.61615 9.01484 9.62585 8.96607 9.62585 8.91682C9.62585 8.86758 9.61615 8.81881 9.5973 8.77331C9.57845 8.72781 9.55083 8.68647 9.51601 8.65164C9.48118 8.61682 9.43984 8.58919 9.39434 8.57035C9.34884 8.5515 9.30007 8.5418 9.25082 8.5418C9.20157 8.5418 9.15281 8.5515 9.10731 8.57035C9.06181 8.58919 9.02046 8.61682 8.98564 8.65164Z" fill="#039855"/>
</svg>
