<svg width="13" height="12" viewBox="0 0 13 12" fill="none" xmlns="http://www.w3.org/2000/svg">
<path d="M11.2533 4.81947C11.0765 4.63509 10.8936 4.44447 10.8246 4.27744C10.7611 4.12399 10.7572 3.86984 10.7535 3.62402C10.7466 3.16658 10.7388 2.64812 10.3783 2.28767C10.0179 1.92723 9.49944 1.9194 9.04199 1.91249C8.79617 1.90878 8.54202 1.90494 8.38858 1.84145C8.22159 1.77237 8.03093 1.58954 7.84654 1.4127C7.52267 1.10207 7.1555 0.75 6.66602 0.75C6.17653 0.75 5.8094 1.10207 5.48549 1.4127C5.3011 1.58954 5.11049 1.77237 4.94345 1.84145C4.79001 1.90494 4.53586 1.90878 4.29004 1.91249C3.8326 1.9194 3.31413 1.92723 2.95369 2.28767C2.59325 2.64812 2.58542 3.16658 2.57851 3.62402C2.5748 3.86984 2.57095 4.12399 2.50746 4.27744C2.43839 4.44443 2.25556 4.63509 2.07872 4.81947C1.76808 5.14334 1.41602 5.51051 1.41602 6C1.41602 6.48949 1.76808 6.85661 2.07872 7.18053C2.25555 7.36491 2.43839 7.55553 2.50746 7.72256C2.57095 7.87601 2.5748 8.13016 2.57851 8.37598C2.58542 8.83342 2.59325 9.35188 2.95369 9.71233C3.31413 10.0728 3.8326 10.0806 4.29004 10.0875C4.53586 10.0912 4.79001 10.0951 4.94345 10.1586C5.11044 10.2276 5.3011 10.4105 5.48549 10.5873C5.80936 10.8979 6.17653 11.25 6.66602 11.25C7.1555 11.25 7.52263 10.8979 7.84654 10.5873C8.03093 10.4105 8.22154 10.2276 8.38858 10.1586C8.54202 10.0951 8.79617 10.0912 9.04199 10.0875C9.49944 10.0806 10.0179 10.0728 10.3783 9.71233C10.7388 9.35188 10.7466 8.83342 10.7535 8.37598C10.7572 8.13016 10.7611 7.87601 10.8246 7.72256C10.8936 7.55557 11.0765 7.36491 11.2533 7.18053C11.5639 6.85666 11.916 6.48949 11.916 6C11.916 5.51051 11.5639 5.14339 11.2533 4.81947ZM8.98743 5.14627L6.23741 7.77127C6.16765 7.83785 6.07493 7.875 5.9785 7.875C5.88207 7.875 5.78935 7.83785 5.71959 7.77127L4.3446 6.45877C4.30896 6.42478 4.28036 6.38409 4.26044 6.33904C4.24053 6.29399 4.22968 6.24546 4.22852 6.19621C4.22737 6.14697 4.23592 6.09798 4.2537 6.05205C4.27148 6.00611 4.29814 5.96413 4.33215 5.92849C4.36616 5.89286 4.40685 5.86428 4.45191 5.84438C4.49697 5.82448 4.5455 5.81365 4.59475 5.81251C4.64399 5.81137 4.69297 5.81994 4.7389 5.83774C4.78483 5.85554 4.82681 5.88221 4.86243 5.91623L5.9785 6.98158L8.4696 4.60373C8.50522 4.56971 8.5472 4.54304 8.59313 4.52524C8.63906 4.50744 8.68804 4.49887 8.73729 4.50001C8.78653 4.50115 8.83507 4.51198 8.88012 4.53188C8.92518 4.55178 8.96588 4.58036 8.99988 4.61599C9.03389 4.65163 9.06055 4.69361 9.07833 4.73955C9.09611 4.78548 9.10466 4.83447 9.10351 4.88371C9.10235 4.93296 9.0915 4.98149 9.07159 5.02654C9.05167 5.07159 9.02307 5.11228 8.98743 5.14627Z" fill="#039855"/>
</svg>
