<svg width="12" height="12" viewBox="0 0 12 12" fill="none" xmlns="http://www.w3.org/2000/svg">
<path d="M11.25 9.74922H10.5V6.375C10.5 6.37276 10.4997 6.37061 10.4997 6.36839C10.4995 6.36168 10.4991 6.35495 10.4986 6.34818C10.4982 6.34172 10.4977 6.33529 10.4969 6.32893C10.4966 6.32659 10.4966 6.3243 10.4962 6.32197L9.79225 1.39389C9.76597 1.2155 9.6766 1.05244 9.54037 0.934299C9.40414 0.816161 9.23008 0.750773 9.04976 0.75H8.20024C8.01992 0.750774 7.84585 0.816169 7.70962 0.934316C7.57339 1.05246 7.48403 1.21553 7.45775 1.39394L6.91592 5.18694L5.09999 3.825C5.04428 3.78322 4.97803 3.75777 4.90867 3.75152C4.83931 3.74526 4.76958 3.75845 4.70729 3.78959C4.645 3.82073 4.59261 3.86861 4.556 3.92785C4.51939 3.98709 4.5 4.05536 4.5 4.125V5.625L2.09999 3.825C2.04428 3.78322 1.97803 3.75777 1.90867 3.75152C1.83931 3.74526 1.76958 3.75845 1.70729 3.78959C1.645 3.82073 1.59261 3.86861 1.556 3.92785C1.51939 3.98709 1.5 4.05536 1.5 4.125V9.74922H0.75C0.650544 9.74922 0.555161 9.78873 0.484835 9.85906C0.414509 9.92938 0.375 10.0248 0.375 10.1242C0.375 10.2237 0.414509 10.3191 0.484835 10.3894C0.555161 10.4597 0.650544 10.4992 0.75 10.4992H1.85937C1.8646 10.4994 1.86973 10.5 1.875 10.5C1.88027 10.5 1.8854 10.4994 1.89063 10.4992H10.1094C10.1146 10.4994 10.1197 10.5 10.125 10.5C10.1303 10.5 10.1354 10.4994 10.1406 10.4992H11.25C11.3495 10.4992 11.4448 10.4597 11.5152 10.3894C11.5855 10.3191 11.625 10.2237 11.625 10.1242C11.625 10.0248 11.5855 9.92938 11.5152 9.85906C11.4448 9.78873 11.3495 9.74922 11.25 9.74922ZM4.6875 8.625H3.375C3.27554 8.625 3.18016 8.58549 3.10984 8.51517C3.03951 8.44484 3 8.34946 3 8.25C3 8.15054 3.03951 8.05516 3.10984 7.98483C3.18016 7.91451 3.27554 7.875 3.375 7.875H4.6875C4.78696 7.875 4.88234 7.91451 4.95266 7.98483C5.02299 8.05516 5.0625 8.15054 5.0625 8.25C5.0625 8.34946 5.02299 8.44484 4.95266 8.51517C4.88234 8.58549 4.78696 8.625 4.6875 8.625ZM8.625 8.625H7.3125C7.21304 8.625 7.11766 8.58549 7.04733 8.51517C6.97701 8.44484 6.9375 8.34946 6.9375 8.25C6.9375 8.15054 6.97701 8.05516 7.04733 7.98483C7.11766 7.91451 7.21304 7.875 7.3125 7.875H8.625C8.72446 7.875 8.81984 7.91451 8.89017 7.98483C8.96049 8.05516 9 8.15054 9 8.25C9 8.34946 8.96049 8.44484 8.89017 8.51517C8.81984 8.58549 8.72446 8.625 8.625 8.625ZM8.00002 6L7.60025 5.70017L8.20024 1.5H9.04976L9.69261 6H8.00002Z" fill="#039855"/>
</svg>
