<svg width="12" height="12" viewBox="0 0 12 12" fill="none" xmlns="http://www.w3.org/2000/svg">
<path d="M9.75 1.875H2.25C2.05117 1.87526 1.86055 1.95436 1.71996 2.09496C1.57936 2.23555 1.50026 2.42617 1.5 2.625V5.37488C1.5 9.56836 5.05408 10.9589 5.76709 11.1951C5.91813 11.2463 6.08187 11.2463 6.23291 11.1951C6.94556 10.9589 10.5 9.56873 10.5 5.37488V2.625C10.4997 2.42617 10.4206 2.23555 10.28 2.09496C10.1394 1.95436 9.94883 1.87526 9.75 1.875ZM8.32141 5.14636L5.57117 7.77136C5.50138 7.83789 5.40867 7.875 5.31226 7.875C5.21584 7.875 5.12313 7.83789 5.05334 7.77136L3.67859 6.45886C3.6429 6.42487 3.61426 6.38419 3.59431 6.33912C3.57436 6.29406 3.56348 6.24551 3.5623 6.19624C3.56112 6.14697 3.56966 6.09795 3.58744 6.05199C3.60521 6.00602 3.63187 5.96401 3.66589 5.92836C3.69991 5.8927 3.74063 5.8641 3.78571 5.84418C3.83079 5.82427 3.87935 5.81344 3.92862 5.8123C3.97789 5.81117 4.0269 5.81975 4.07285 5.83757C4.1188 5.85539 4.16079 5.88209 4.19641 5.91614L5.31226 6.98145L7.80359 4.60364C7.83921 4.56959 7.8812 4.54289 7.92715 4.52507C7.9731 4.50725 8.02211 4.49867 8.07138 4.4998C8.12065 4.50094 8.16921 4.51177 8.21429 4.53168C8.25937 4.5516 8.30009 4.5802 8.33411 4.61586C8.36813 4.65151 8.39479 4.69352 8.41256 4.73949C8.43034 4.78545 8.43888 4.83447 8.4377 4.88374C8.43652 4.93301 8.42564 4.98156 8.40569 5.02662C8.38574 5.07169 8.3571 5.11237 8.32141 5.14636H8.32141Z" fill="#039855"/>
</svg>
